Coordinates
version=1
nRows=16
nColumns=40
inDegrees=yes

Units are S.I. units (second, meters, Newtons, ...)
Angles are in degrees.

endheader
time	pelvis_tilt	pelvis_list	pelvis_rotation	pelvis_tx	pelvis_ty	pelvis_tz	hip_flexion_r	hip_adduction_r	hip_rotation_r	knee_angle_r	knee_angle_r_beta	ankle_angle_r	subtalar_angle_r	mtp_angle_r	hip_flexion_l	hip_adduction_l	hip_rotation_l	knee_angle_l	knee_angle_l_beta	ankle_angle_l	subtalar_angle_l	mtp_angle_l	lumbar_extension	lumbar_bending	lumbar_rotation	arm_flex_r	arm_add_r	arm_rot_r	elbow_flex_r	pro_sup_r	wrist_flex_r	wrist_dev_r	arm_flex_l	arm_add_l	arm_rot_l	elbow_flex_l	pro_sup_l	wrist_flex_l	wrist_dev_l
     21.23214286	     -4.70139038	     -3.82930708	     -0.41476640	      1.01472926	      0.91829502	      0.39516647	     16.98073206	     -6.84792467	     -2.32642509	     54.37107364	     54.37107364	      3.64438705	    -16.80697068	     -8.04047038	     18.08267721	     -0.79647108	     -0.96777787	     30.49374641	     30.49374641	     19.51282297	    -16.08099863	      7.62276419	     -9.07732489	      6.51307007	      4.80641381	     24.02202594	    -13.23767111	    -14.22672714	     32.53124992	     46.63143987	      0.00000000	      0.00000000	     25.68411000	    -13.48397155	     16.86528710	     42.19026491	     45.81089856	      0.00000000	      0.00000000
     21.25678571	     -4.59187803	     -3.79742552	     -1.09610019	      1.01310643	      0.91886657	      0.39462597	     18.71770131	     -6.69439203	     -1.78419713	     55.96505584	     55.96505584	      3.66417991	    -17.33950053	     -6.24054681	     17.42881103	     -0.87112210	     -1.66089956	     30.08099500	     30.08099500	     19.70960496	    -15.91697186	      7.55546389	     -9.22147742	      6.48705038	      4.41200782	     20.49225635	    -12.80131697	    -14.36288781	     30.89217182	     46.67504636	      0.00000000	      0.00000000	     27.92104645	    -14.29665768	     15.73934079	     43.63042851	     45.96160312	      0.00000000	      0.00000000
     21.28142857	     -4.45538044	     -4.15796053	     -1.80141843	      1.01163942	      0.92008532	      0.39489015	     20.31127315	     -5.95603055	     -1.38076182	     56.90547598	     56.90547598	      5.94861436	    -16.66685386	      0.85003128	     16.68466367	     -1.44732557	     -2.37612051	     29.58888948	     29.58888948	     19.69182174	    -15.63972967	      7.00391069	     -9.45297376	      6.90671343	      3.81701816	     17.19965483	    -12.31534222	    -14.82228570	     29.17590177	     46.72979851	      0.00000000	      0.00000000	     29.22018201	    -14.98743310	     11.42900219	     46.63523816	     46.42181705	      0.00000000	      0.00000000
     21.30607143	     -4.43814526	     -4.43363792	     -2.51807748	      1.01012400	      0.92148148	      0.39553829	     21.65866083	     -5.47838300	     -1.38166200	     56.45586848	     56.45586848	      6.35504822	    -16.56059068	      0.72437521	     15.99285433	     -1.88291316	     -2.94141984	     28.96272130	     28.96272130	     19.72208558	    -15.60593718	      7.13712264	     -9.45613993	      7.23364376	      3.04155554	     13.91696301	    -11.86033153	    -14.83925771	     27.90335553	     46.75472107	      0.00000000	      0.00000000	     31.22141568	    -16.49999129	     10.77256618	     47.31335079	     46.50621514	      0.00000000	      0.00000000
     21.33071429	     -4.39020998	     -4.58423595	     -3.41879471	      1.00887216	      0.92353033	      0.39685877	     22.73595743	     -4.94337059	     -1.15806703	     54.93645689	     54.93645689	      6.81255639	    -16.59699154	      0.31948006	     14.91546303	     -2.26641423	     -3.88092635	     27.76305691	     27.76305691	     19.65790093	    -15.13300948	      7.17570354	     -9.64014191	      7.25648857	      3.93630818	      9.87260819	    -12.09201853	    -14.69462913	     26.05664672	     46.78643792	      0.00000000	      0.00000000	     33.33146242	    -16.54913935	      9.38978824	     49.70063670	     46.67660469	      0.00000000	      0.00000000
     21.35535714	     -4.48093074	     -4.86771391	     -4.28175721	      1.00757723	      0.92552718	      0.39859666	     23.52770800	     -4.38567641	     -1.38056449	     52.10733841	     52.10733841	      6.22160441	    -16.59097109	     -4.06918943	     13.98700625	     -2.78876997	     -4.75711693	     26.54213057	     26.54213057	     19.18528615	    -14.92919233	      6.44679233	     -9.61942598	      7.50177257	      3.40292842	      6.45269880	    -12.05192994	    -12.61897618	     25.39603679	     46.61220006	      0.00000000	      0.00000000	     34.20375957	    -17.15747527	      4.87982051	     52.49914622	     47.06020722	      0.00000000	      0.00000000
     21.38000000	     -4.56405558	     -5.17100745	     -5.16963844	      1.00634082	      0.92768616	      0.40090272	     24.07886542	     -3.70994229	     -1.62113647	     48.57713816	     48.57713816	      6.96750004	    -15.38888060	     -4.68764863	     12.98209368	     -3.33136884	     -5.61720013	     25.26829440	     25.26829440	     19.05561904	    -14.57232051	      6.65981404	     -9.60825098	      7.73469515	      3.44966689	      3.10714973	    -11.95061628	    -12.48583894	     24.35026216	     46.61649765	      0.00000000	      0.00000000	     35.86389526	    -18.11712034	      4.05287912	     53.94986830	     47.15633331	      0.00000000	      0.00000000
     21.40464286	     -4.73762593	     -5.42226163	     -6.06899482	      1.00518544	      0.92957381	      0.40356727	     24.21988492	     -3.11245617	     -2.08771065	     43.82722379	     43.82722379	      6.16126696	    -14.24002657	     -9.11096523	     12.02411864	     -3.83172412	     -6.55017904	     23.91166279	     23.91166279	     18.62917418	    -14.22357666	      6.13837744	     -9.54839702	      7.91768380	      3.25828301	     -0.62309627	    -11.95434588	    -11.23873665	     25.27591446	     46.44161278	      0.00000000	      0.00000000	     36.64415779	    -18.86534694	      1.13068510	     56.96468778	     47.40761710	      0.00000000	      0.00000000
     21.42928571	     -4.85826850	     -5.62902316	     -6.94475510	      1.00418790	      0.93133523	      0.40668042	     24.04205246	     -2.48846222	     -2.61690497	     38.72612293	     38.72612293	      6.46280013	    -11.54493442	     -9.29876233	     10.98255194	     -4.25781331	     -7.44298179	     22.56159553	     22.56159553	     18.46536955	    -13.86405183	      6.25259538	     -9.49006663	      8.03051369	      3.41822714	     -3.60212854	    -11.83186446	    -10.88862380	     24.40374916	     46.42545089	      0.00000000	      0.00000000	     38.15217851	    -19.67123735	      0.37487532	     58.26713147	     47.48970095	      0.00000000	      0.00000000
     21.45392857	     -5.00475820	     -5.71445480	     -7.76080246	      1.00339699	      0.93253745	      0.41001673	     23.56203860	     -2.03465530	     -3.48708087	     33.23682242	     33.23682242	      6.37114572	     -7.83406503	     -9.33148585	      9.97883439	     -4.54137917	     -8.30424780	     21.22457097	     21.22457097	     18.08985205	    -13.53725527	      5.59227177	     -9.40672428	      8.04093535	      3.45427849	     -6.81418511	    -11.80994712	     -9.86784259	     25.04860162	     46.28757320	      0.00000000	      0.00000000	     39.07414700	    -20.30193554	     -1.44734934	     60.44616568	     47.64788220	      0.00000000	      0.00000000
     21.47857143	     -5.05434482	     -5.71157722	     -8.53348080	      1.00293687	      0.93340555	      0.41381061	     22.75418059	     -1.54962980	     -4.29335438	     27.75872076	     27.75872076	      6.11493724	     -3.85139034	     -7.99702995	      8.85424992	     -4.72978498	     -9.27161892	     19.89760844	     19.89760844	     17.87661377	    -13.08738387	      5.26201548	     -9.29119901	      7.92938175	      3.51754476	     -9.45600330	    -11.56542650	     -9.34302791	     24.99030107	     46.22516619	      0.00000000	      0.00000000	     40.23045937	    -20.96806692	     -2.39332528	     61.92314864	     47.73878250	      0.00000000	      0.00000000
     21.50321429	     -5.04945589	     -5.57404158	     -9.21938065	      1.00282799	      0.93367930	      0.41783217	     21.90386711	     -1.22389767	     -5.30644190	     22.89980695	     22.89980695	      5.91880488	      0.61917289	     -5.42911202	      7.71316337	     -4.74860348	    -10.17798678	     18.64399585	     18.64399585	     17.60670354	    -12.64403803	      4.43411561	     -9.19837683	      7.68524722	      3.57351017	    -12.03109229	    -11.33358425	     -8.73214819	     25.55851662	     46.12901158	      0.00000000	      0.00000000	     41.12633331	    -21.51342305	     -3.57121309	     63.63168340	     47.84657920	      0.00000000	      0.00000000
     21.52785714	     -5.09329584	     -5.40904886	     -9.83950733	      1.00290673	      0.93344476	      0.42208489	     21.41723427	     -0.88247287	     -6.13088230	     19.37182997	     19.37182997	      6.80845064	      4.72317074	      1.15607844	      6.63118063	     -4.71170882	    -10.90405687	     17.34388241	     17.34388241	     16.67127540	    -12.67929042	      2.07829506	     -9.04727987	      7.49779166	      3.43637728	    -14.86098271	    -11.43139375	     -6.15246704	     27.90061145	     45.82761349	      0.00000000	      0.00000000	     41.62434590	    -22.00625412	     -5.33209290	     65.57895291	     47.96550391	      0.00000000	      0.00000000
     21.55250000	     -5.03469956	     -5.10816324	    -10.36905389	      1.00341463	      0.93295467	      0.42662892	     20.82540357	     -0.68925639	     -6.90346155	     16.41811087	     16.41811087	      6.18720451	      7.87316837	      3.03328128	      5.53718270	     -4.55112539	    -11.73594535	     16.29352008	     16.29352008	     16.62984364	    -12.07898928	      1.42489486	     -8.88778320	      7.12919362	      3.52582927	    -16.65649361	    -11.09294525	     -5.54037981	     28.08042555	     45.77004035	      0.00000000	      0.00000000	     42.41595750	    -22.38815490	     -5.96183841	     66.76317279	     48.02348085	      0.00000000	      0.00000000
     21.57714286	     -5.01864912	     -4.87940156	    -10.81719550	      1.00415145	      0.93233519	      0.43142156	     20.31556580	     -0.34028174	     -7.10512261	     14.24201844	     14.24201844	      5.42168407	      9.60371037	      4.15720319	      4.54642937	     -4.46513062	    -12.35923705	     15.38399131	     15.38399131	     16.67062685	    -11.65601099	      1.08623027	     -8.67228190	      6.89743349	      3.55885137	    -17.99612474	    -10.69142775	     -5.32061310	     28.06862903	     45.74570107	      0.00000000	      0.00000000	     43.09859315	    -22.75794609	     -6.45660414	     67.58331256	     48.07335376	      0.00000000	      0.00000000
     21.60178571	     -5.04481068	     -4.58719858	    -11.21469196	      1.00514264	      0.93163754	      0.43640643	     20.02298268	     -0.12301496	     -7.24519971	     13.03798584	     13.03798584	      4.91581767	     10.92088599	      4.73933677	      3.59645501	     -4.32547692	    -13.00890904	     14.45500620	     14.45500620	     16.68110341	    -11.08751168	      0.69631328	     -8.39760465	      6.62199527	      3.61355104	    -19.05116549	    -10.27464812	     -5.13984044	     28.19812333	     45.71971864	      0.00000000	      0.00000000	     43.65243634	    -22.95745905	     -7.00640496	     68.43713188	     48.12717920	      0.00000000	      0.00000000
